<svg xmlns="http://www.w3.org/2000/svg" width="240" height="300" viewBox="0 0 240 300">
  <defs><linearGradient id="wrap"><stop stop-color="#2374ae"/><stop offset=".45" stop-color="#59a6d8"/><stop offset="1" stop-color="#267db8"/></linearGradient></defs>
  <g transform="rotate(-8 120 150)">
    <path d="M28 93L37 88L45 93L53 88H188L196 93L204 88L212 93V213L204 218L196 213L188 218H53L45 213L37 218L28 213Z" fill="url(#wrap)"/>
    <path d="M39 99V208M45 99V208M197 99V208M203 99V208" stroke="#a8d6ef" opacity=".4"/>
    <text x="120" y="121" text-anchor="middle" font-family="Arial,sans-serif" fill="white" font-size="20" font-weight="bold">Rice Krispies</text>
    <text x="120" y="144" text-anchor="middle" font-family="Georgia,serif" fill="white" font-size="24" font-weight="bold" font-style="italic">Treats</text>
    <rect x="72" y="154" width="99" height="37" rx="7" fill="#ead19c" stroke="#c4a570" stroke-width="2"/>
    <g fill="#fff0c9" stroke="#d3b986" stroke-width=".7"><ellipse cx="83" cy="163" rx="6" ry="3"/><ellipse cx="98" cy="169" rx="6" ry="3"/><ellipse cx="112" cy="160" rx="6" ry="3"/><ellipse cx="128" cy="170" rx="6" ry="3"/><ellipse cx="145" cy="162" rx="6" ry="3"/><ellipse cx="158" cy="175" rx="6" ry="3"/><ellipse cx="84" cy="180" rx="6" ry="3"/><ellipse cx="113" cy="181" rx="6" ry="3"/><ellipse cx="140" cy="183" rx="6" ry="3"/></g>
    <text x="120" y="205" text-anchor="middle" font-family="Arial,sans-serif" fill="white" font-size="9" letter-spacing="2">ORIGINAL</text>
  </g>
</svg>
